<?xml version="1.0" encoding="UTF-8"?>
<svg width="24px" height="21px" viewBox="0 0 24 21" version="1.1" xmlns="http://www.w3.org/2000/svg" xmlns:xlink="http://www.w3.org/1999/xlink">
    <title>xxxhdpi/assets_borrow</title>
    <g id="页面-1" stroke="none" stroke-width="1" fill="none" fill-rule="evenodd">
        <g id="画板" transform="translate(-584.000000, -480.000000)">
            <g id="assets_borrow_night" transform="translate(584.000000, 480.000000)">
                <path d="M0.450113038,12.124208 C0.106882211,11.7632333 0.121266443,11.192362 0.48224112,10.8491311 C0.484850881,10.8466497 0.487475482,10.8441838 0.490114153,10.8417331 C0.833904526,10.5225953 1.10467466,10.276331 1.30242455,10.1029402 C3.46018418,8.21097626 5.08426364,7.26395904 6.3113236,7.26395904 C8.3906102,7.26395904 14.6341233,11.0693119 15.2185235,12.739956 C15.6614786,14.0062465 14.7400962,15.3097103 13.1792114,15.6626352 C11.9302722,15.9450274 10.3456223,15.6662316 8.49377783,14.7874728 C8.25632219,14.6747926 7.93419822,14.5041622 7.52740593,14.2755818 C7.10186752,14.0365072 6.95074668,13.4977213 7.18985125,13.0721997 C7.19552733,13.0620983 7.20140152,13.0521094 7.20747041,13.042239 C7.47099511,12.6136431 8.02566604,12.4691805 8.46477591,12.7147864 C8.8264992,12.9170962 9.11143124,13.0672398 9.31957204,13.1652172 C10.7927974,13.8587033 11.9671838,14.0685463 12.7812845,13.8844735 C13.3647305,13.7525531 13.5560293,13.4819259 13.5079647,13.344522 C13.4029134,13.0442083 12.0262855,11.9340557 10.3593708,10.9180894 C8.60077765,9.84624614 6.89926131,9.0865524 6.3113236,9.0865524 C5.62630425,9.0865524 4.28811916,9.9023484 2.42954983,11.5359521 C2.25958551,11.6853435 2.0289691,11.8949974 1.73770058,12.1649136 C1.36967933,12.5059749 0.79586093,12.4878299 0.450113038,12.124208 Z" id="Path-20" fill="#FFFFFF"></path>
                <path d="M20.0078709,11.5351939 C19.9240571,11.5413718 19.8430242,11.5525981 19.760807,11.5693675 C19.3246259,11.6583329 16.0990504,13.2616724 14.6699229,13.8786628 L13.9521469,12.2092562 C15.1555771,11.689705 18.6903496,9.93267262 19.3989859,9.78813612 C19.5565429,9.75600013 19.7139741,9.73418951 19.8747932,9.72233565 C21.7711905,9.58255363 23.1433869,9.98238195 23.8586061,11.3424899 C24.4778721,12.5201272 23.0298429,14.0704454 20.150945,16.2987531 C17.7982709,18.1197562 15.1552649,19.7406201 13.4161814,20.3613713 C11.7705868,20.9487525 10.200719,20.6085197 5.57413867,19.0450479 C5.06224578,18.8720626 3.80550476,18.5422355 1.8039156,18.0555666 C1.54820682,17.9933932 1.1826403,17.9053998 0.70721602,17.7915864 C0.217265884,17.6743097 -0.0876980378,17.1853254 0.0225110002,16.6937372 C0.131807287,16.2062204 0.615619918,15.899612 1.10313676,16.0089083 C1.10460963,16.0092385 1.10608168,16.0095724 1.10755857,16.0098852 C2.149587,16.2489818 2.82510764,16.4060857 3.13412047,16.4811972 C5.24205619,16.993571 5.5933533,17.1332001 6.15382736,17.3226025 C10.2836004,18.718187 11.7333846,19.0323945 12.807469,18.6490091 C14.3313135,18.1050856 16.8274779,16.5742745 19.0420267,14.8601824 C20.0939972,14.0459423 20.9842637,13.2635694 21.5679357,12.6386668 C21.8136577,12.3755869 21.9958469,12.1497811 22.1052868,11.9783091 C21.7554605,11.5965468 21.0810037,11.4560941 20.0078709,11.5351939 Z" id="Path-27" fill="#FFFFFF"></path>
                <path d="M12.3606861,4.22630344 L19.8720969,4.22630344 C20.700524,4.22630344 21.3720969,4.89787632 21.3720969,5.72630344 L21.3720969,6.33945516 L21.3720969,6.33945516 L10.8606861,6.33945516 L10.8606861,5.72630344 C10.8606861,4.89787632 11.532259,4.22630344 12.3606861,4.22630344 Z" id="Rectangle-6" fill="#2B61FF"></path>
                <path d="M12.3606861,0 L19.8720969,0 C20.700524,-4.43881479e-16 21.3720969,0.671572875 21.3720969,1.5 L21.3720969,2.11315172 L21.3720969,2.11315172 L10.8606861,2.11315172 L10.8606861,1.5 C10.8606861,0.671572875 11.532259,3.74224199e-16 12.3606861,0 Z" id="Rectangle-6-Copy" fill="#2B61FF"></path>
            </g>
        </g>
    </g>
</svg>