<svg width="16" height="16" viewBox="0 0 16 16" fill="none" xmlns="http://www.w3.org/2000/svg">
<path d="M15.4663 6.34636C15.5338 6.27679 15.4941 6.15953 15.3987 6.14562L10.4285 5.38637C10.3888 5.38041 10.355 5.35457 10.3391 5.3188L8.10826 0.56857C8.06456 0.477143 7.93544 0.477143 7.89174 0.56857L5.66089 5.3188C5.64301 5.35457 5.61123 5.38041 5.5715 5.38637L0.601264 6.14562C0.505912 6.15953 0.466182 6.27679 0.533723 6.34636L4.13724 10.0372C4.15005 10.0509 4.15956 10.0673 4.16507 10.0852C4.17058 10.1031 4.17193 10.1221 4.16903 10.1406L3.31682 15.3618C3.30092 15.4592 3.40422 15.5328 3.49163 15.4851L7.9414 13.0265C7.97716 13.0066 8.02086 13.0066 8.05662 13.0265L12.5064 15.4851C12.5938 15.5328 12.6971 15.4592 12.6812 15.3618L11.831 10.1386C11.825 10.1008 11.8369 10.0631 11.8628 10.0352L15.4663 6.34636Z" fill="#2B61FF"/>
</svg>
